<svg xmlns="http://www.w3.org/2000/svg" viewBox="0 0 32 32" width="512" height="512" shape-rendering="crispEdges">
    
        <rect x="5.1" y="25.1" width="0.8" height="0.8" fill="oklch(0.7 0.18 0.00)" />
    <rect x="6.1" y="25.1" width="0.8" height="0.8" fill="oklch(0.7 0.18 1.80)" />
    <rect x="6.1" y="24.1" width="0.8" height="0.8" fill="oklch(0.7 0.18 3.60)" />
    <rect x="7.1" y="25.1" width="0.8" height="0.8" fill="oklch(0.7 0.18 5.40)" />
    <rect x="6.1" y="23.1" width="0.8" height="0.8" fill="oklch(0.7 0.18 7.20)" />
    <rect x="7.1" y="24.1" width="0.8" height="0.8" fill="oklch(0.7 0.18 9.00)" />
    <rect x="8.1" y="25.1" width="0.8" height="0.8" fill="oklch(0.7 0.18 10.80)" />
    <rect x="7.1" y="23.1" width="0.8" height="0.8" fill="oklch(0.7 0.18 12.60)" />
    <rect x="8.1" y="24.1" width="0.8" height="0.8" fill="oklch(0.7 0.18 14.40)" />
    <rect x="9.1" y="25.1" width="0.8" height="0.8" fill="oklch(0.7 0.18 16.20)" />
    <rect x="7.1" y="22.1" width="0.8" height="0.8" fill="oklch(0.7 0.18 18.00)" />
    <rect x="8.1" y="23.1" width="0.8" height="0.8" fill="oklch(0.7 0.18 19.80)" />
    <rect x="9.1" y="24.1" width="0.8" height="0.8" fill="oklch(0.7 0.18 21.60)" />
    <rect x="10.1" y="25.1" width="0.8" height="0.8" fill="oklch(0.7 0.18 23.40)" />
    <rect x="7.1" y="21.1" width="0.8" height="0.8" fill="oklch(0.7 0.18 25.20)" />
    <rect x="8.1" y="22.1" width="0.8" height="0.8" fill="oklch(0.7 0.18 27.00)" />
    <rect x="9.1" y="23.1" width="0.8" height="0.8" fill="oklch(0.7 0.18 28.80)" />
    <rect x="10.1" y="24.1" width="0.8" height="0.8" fill="oklch(0.7 0.18 30.60)" />
    <rect x="11.1" y="25.1" width="0.8" height="0.8" fill="oklch(0.7 0.18 32.40)" />
    <rect x="8.1" y="21.1" width="0.8" height="0.8" fill="oklch(0.7 0.18 34.20)" />
    <rect x="9.1" y="22.1" width="0.8" height="0.8" fill="oklch(0.7 0.18 36.00)" />
    <rect x="10.1" y="23.1" width="0.8" height="0.8" fill="oklch(0.7 0.18 37.80)" />
    <rect x="11.1" y="24.1" width="0.8" height="0.8" fill="oklch(0.7 0.18 39.60)" />
    <rect x="12.1" y="25.1" width="0.8" height="0.8" fill="oklch(0.7 0.18 41.40)" />
    <rect x="8.1" y="20.1" width="0.8" height="0.8" fill="oklch(0.7 0.18 43.20)" />
    <rect x="9.1" y="21.1" width="0.8" height="0.8" fill="oklch(0.7 0.18 45.00)" />
    <rect x="10.1" y="22.1" width="0.8" height="0.8" fill="oklch(0.7 0.18 46.80)" />
    <rect x="11.1" y="23.1" width="0.8" height="0.8" fill="oklch(0.7 0.18 48.60)" />
    <rect x="12.1" y="24.1" width="0.8" height="0.8" fill="oklch(0.7 0.18 50.40)" />
    <rect x="13.1" y="25.1" width="0.8" height="0.8" fill="oklch(0.7 0.18 52.20)" />
    <rect x="8.1" y="19.1" width="0.8" height="0.8" fill="oklch(0.7 0.18 54.00)" />
    <rect x="9.1" y="20.1" width="0.8" height="0.8" fill="oklch(0.7 0.18 55.80)" />
    <rect x="10.1" y="21.1" width="0.8" height="0.8" fill="oklch(0.7 0.18 57.60)" />
    <rect x="11.1" y="22.1" width="0.8" height="0.8" fill="oklch(0.7 0.18 59.40)" />
    <rect x="12.1" y="23.1" width="0.8" height="0.8" fill="oklch(0.7 0.18 61.20)" />
    <rect x="13.1" y="24.1" width="0.8" height="0.8" fill="oklch(0.7 0.18 63.00)" />
    <rect x="9.1" y="19.1" width="0.8" height="0.8" fill="oklch(0.7 0.18 64.80)" />
    <rect x="10.1" y="20.1" width="0.8" height="0.8" fill="oklch(0.7 0.18 66.60)" />
    <rect x="11.1" y="21.1" width="0.8" height="0.8" fill="oklch(0.7 0.18 68.40)" />
    <rect x="12.1" y="22.1" width="0.8" height="0.8" fill="oklch(0.7 0.18 70.20)" />
    <rect x="13.1" y="23.1" width="0.8" height="0.8" fill="oklch(0.7 0.18 72.00)" />
    <rect x="14.1" y="24.1" width="0.8" height="0.8" fill="oklch(0.7 0.18 73.80)" />
    <rect x="9.1" y="18.1" width="0.8" height="0.8" fill="oklch(0.7 0.18 75.60)" />
    <rect x="10.1" y="19.1" width="0.8" height="0.8" fill="oklch(0.7 0.18 77.40)" />
    <rect x="11.1" y="20.1" width="0.8" height="0.8" fill="oklch(0.7 0.18 79.20)" />
    <rect x="12.1" y="21.1" width="0.8" height="0.8" fill="oklch(0.7 0.18 81.00)" />
    <rect x="13.1" y="22.1" width="0.8" height="0.8" fill="oklch(0.7 0.18 82.80)" />
    <rect x="14.1" y="23.1" width="0.8" height="0.8" fill="oklch(0.7 0.18 84.60)" />
    <rect x="9.1" y="17.1" width="0.8" height="0.8" fill="oklch(0.7 0.18 86.40)" />
    <rect x="10.1" y="18.1" width="0.8" height="0.8" fill="oklch(0.7 0.18 88.20)" />
    <rect x="11.1" y="19.1" width="0.8" height="0.8" fill="oklch(0.7 0.18 90.00)" />
    <rect x="12.1" y="20.1" width="0.8" height="0.8" fill="oklch(0.7 0.18 91.80)" />
    <rect x="13.1" y="21.1" width="0.8" height="0.8" fill="oklch(0.7 0.18 93.60)" />
    <rect x="14.1" y="22.1" width="0.8" height="0.8" fill="oklch(0.7 0.18 95.40)" />
    <rect x="15.1" y="23.1" width="0.8" height="0.8" fill="oklch(0.7 0.18 97.20)" />
    <rect x="10.1" y="17.1" width="0.8" height="0.8" fill="oklch(0.7 0.18 99.00)" />
    <rect x="11.1" y="18.1" width="0.8" height="0.8" fill="oklch(0.7 0.18 100.80)" />
    <rect x="12.1" y="19.1" width="0.8" height="0.8" fill="oklch(0.7 0.18 102.60)" />
    <rect x="13.1" y="20.1" width="0.8" height="0.8" fill="oklch(0.7 0.18 104.40)" />
    <rect x="14.1" y="21.1" width="0.8" height="0.8" fill="oklch(0.7 0.18 106.20)" />
    <rect x="15.1" y="22.1" width="0.8" height="0.8" fill="oklch(0.7 0.18 108.00)" />
    <rect x="10.1" y="16.1" width="0.8" height="0.8" fill="oklch(0.7 0.18 109.80)" />
    <rect x="11.1" y="17.1" width="0.8" height="0.8" fill="oklch(0.7 0.18 111.60)" />
    <rect x="12.1" y="18.1" width="0.8" height="0.8" fill="oklch(0.7 0.18 113.40)" />
    <rect x="13.1" y="19.1" width="0.8" height="0.8" fill="oklch(0.7 0.18 115.20)" />
    <rect x="14.1" y="20.1" width="0.8" height="0.8" fill="oklch(0.7 0.18 117.00)" />
    <rect x="15.1" y="21.1" width="0.8" height="0.8" fill="oklch(0.7 0.18 118.80)" />
    <rect x="16.1" y="22.1" width="0.8" height="0.8" fill="oklch(0.7 0.18 120.60)" />
    <rect x="10.1" y="15.1" width="0.8" height="0.8" fill="oklch(0.7 0.18 122.40)" />
    <rect x="11.1" y="16.1" width="0.8" height="0.8" fill="oklch(0.7 0.18 124.20)" />
    <rect x="12.1" y="17.1" width="0.8" height="0.8" fill="oklch(0.7 0.18 126.00)" />
    <rect x="13.1" y="18.1" width="0.8" height="0.8" fill="oklch(0.7 0.18 127.80)" />
    <rect x="14.1" y="19.1" width="0.8" height="0.8" fill="oklch(0.7 0.18 129.60)" />
    <rect x="15.1" y="20.1" width="0.8" height="0.8" fill="oklch(0.7 0.18 131.40)" />
    <rect x="16.1" y="21.1" width="0.8" height="0.8" fill="oklch(0.7 0.18 133.20)" />
    <rect x="11.1" y="15.1" width="0.8" height="0.8" fill="oklch(0.7 0.18 135.00)" />
    <rect x="12.1" y="16.1" width="0.8" height="0.8" fill="oklch(0.7 0.18 136.80)" />
    <rect x="13.1" y="17.1" width="0.8" height="0.8" fill="oklch(0.7 0.18 138.60)" />
    <rect x="14.1" y="18.1" width="0.8" height="0.8" fill="oklch(0.7 0.18 140.40)" />
    <rect x="15.1" y="19.1" width="0.8" height="0.8" fill="oklch(0.7 0.18 142.20)" />
    <rect x="16.1" y="20.1" width="0.8" height="0.8" fill="oklch(0.7 0.18 144.00)" />
    <rect x="17.1" y="21.1" width="0.8" height="0.8" fill="oklch(0.7 0.18 145.80)" />
    <rect x="11.1" y="14.1" width="0.8" height="0.8" fill="oklch(0.7 0.18 147.60)" />
    <rect x="12.1" y="15.1" width="0.8" height="0.8" fill="oklch(0.7 0.18 149.40)" />
    <rect x="13.1" y="16.1" width="0.8" height="0.8" fill="oklch(0.7 0.18 151.20)" />
    <rect x="14.1" y="17.1" width="0.8" height="0.8" fill="oklch(0.7 0.18 153.00)" />
    <rect x="15.1" y="18.1" width="0.8" height="0.8" fill="oklch(0.7 0.18 154.80)" />
    <rect x="16.1" y="19.1" width="0.8" height="0.8" fill="oklch(0.7 0.18 156.60)" />
    <rect x="17.1" y="20.1" width="0.8" height="0.8" fill="oklch(0.7 0.18 158.40)" />
    <rect x="18.1" y="21.1" width="0.8" height="0.8" fill="oklch(0.7 0.18 160.20)" />
    <rect x="12.1" y="14.1" width="0.8" height="0.8" fill="oklch(0.7 0.18 162.00)" />
    <rect x="13.1" y="15.1" width="0.8" height="0.8" fill="oklch(0.7 0.18 163.80)" />
    <rect x="14.1" y="16.1" width="0.8" height="0.8" fill="oklch(0.7 0.18 165.60)" />
    <rect x="15.1" y="17.1" width="0.8" height="0.8" fill="oklch(0.7 0.18 167.40)" />
    <rect x="16.1" y="18.1" width="0.8" height="0.8" fill="oklch(0.7 0.18 169.20)" />
    <rect x="17.1" y="19.1" width="0.8" height="0.8" fill="oklch(0.7 0.18 171.00)" />
    <rect x="18.1" y="20.1" width="0.8" height="0.8" fill="oklch(0.7 0.18 172.80)" />
    <rect x="13.1" y="14.1" width="0.8" height="0.8" fill="oklch(0.7 0.18 174.60)" />
    <rect x="14.1" y="15.1" width="0.8" height="0.8" fill="oklch(0.7 0.18 176.40)" />
    <rect x="15.1" y="16.1" width="0.8" height="0.8" fill="oklch(0.7 0.18 178.20)" />
    <rect x="16.1" y="17.1" width="0.8" height="0.8" fill="oklch(0.7 0.18 180.00)" />
    <rect x="17.1" y="18.1" width="0.8" height="0.8" fill="oklch(0.7 0.18 181.80)" />
    <rect x="18.1" y="19.1" width="0.8" height="0.8" fill="oklch(0.7 0.18 183.60)" />
    <rect x="19.1" y="20.1" width="0.8" height="0.8" fill="oklch(0.7 0.18 185.40)" />
    <rect x="13.1" y="13.1" width="0.8" height="0.8" fill="oklch(0.7 0.18 187.20)" />
    <rect x="14.1" y="14.1" width="0.8" height="0.8" fill="oklch(0.7 0.18 189.00)" />
    <rect x="15.1" y="15.1" width="0.8" height="0.8" fill="oklch(0.7 0.18 190.80)" />
    <rect x="16.1" y="16.1" width="0.8" height="0.8" fill="oklch(0.7 0.18 192.60)" />
    <rect x="17.1" y="17.1" width="0.8" height="0.8" fill="oklch(0.7 0.18 194.40)" />
    <rect x="18.1" y="18.1" width="0.8" height="0.8" fill="oklch(0.7 0.18 196.20)" />
    <rect x="19.1" y="19.1" width="0.8" height="0.8" fill="oklch(0.7 0.18 198.00)" />
    <rect x="14.1" y="13.1" width="0.8" height="0.8" fill="oklch(0.7 0.18 199.80)" />
    <rect x="15.1" y="14.1" width="0.8" height="0.8" fill="oklch(0.7 0.18 201.60)" />
    <rect x="16.1" y="15.1" width="0.8" height="0.8" fill="oklch(0.7 0.18 203.40)" />
    <rect x="17.1" y="16.1" width="0.8" height="0.8" fill="oklch(0.7 0.18 205.20)" />
    <rect x="18.1" y="17.1" width="0.8" height="0.8" fill="oklch(0.7 0.18 207.00)" />
    <rect x="19.1" y="18.1" width="0.8" height="0.8" fill="oklch(0.7 0.18 208.80)" />
    <rect x="14.1" y="12.1" width="0.8" height="0.8" fill="oklch(0.7 0.18 210.60)" />
    <rect x="15.1" y="13.1" width="0.8" height="0.8" fill="oklch(0.7 0.18 212.40)" />
    <rect x="16.1" y="14.1" width="0.8" height="0.8" fill="oklch(0.7 0.18 214.20)" />
    <rect x="17.1" y="15.1" width="0.8" height="0.8" fill="oklch(0.7 0.18 216.00)" />
    <rect x="18.1" y="16.1" width="0.8" height="0.8" fill="oklch(0.7 0.18 217.80)" />
    <rect x="19.1" y="17.1" width="0.8" height="0.8" fill="oklch(0.7 0.18 219.60)" />
    <rect x="20.1" y="18.1" width="0.8" height="0.8" fill="oklch(0.7 0.18 221.40)" />
    <rect x="14.1" y="11.1" width="0.8" height="0.8" fill="oklch(0.7 0.18 223.20)" />
    <rect x="15.1" y="12.1" width="0.8" height="0.8" fill="oklch(0.7 0.18 225.00)" />
    <rect x="16.1" y="13.1" width="0.8" height="0.8" fill="oklch(0.7 0.18 226.80)" />
    <rect x="17.1" y="14.1" width="0.8" height="0.8" fill="oklch(0.7 0.18 228.60)" />
    <rect x="18.1" y="15.1" width="0.8" height="0.8" fill="oklch(0.7 0.18 230.40)" />
    <rect x="19.1" y="16.1" width="0.8" height="0.8" fill="oklch(0.7 0.18 232.20)" />
    <rect x="20.1" y="17.1" width="0.8" height="0.8" fill="oklch(0.7 0.18 234.00)" />
    <rect x="15.1" y="11.1" width="0.8" height="0.8" fill="oklch(0.7 0.18 235.80)" />
    <rect x="16.1" y="12.1" width="0.8" height="0.8" fill="oklch(0.7 0.18 237.60)" />
    <rect x="17.1" y="13.1" width="0.8" height="0.8" fill="oklch(0.7 0.18 239.40)" />
    <rect x="18.1" y="14.1" width="0.8" height="0.8" fill="oklch(0.7 0.18 241.20)" />
    <rect x="19.1" y="15.1" width="0.8" height="0.8" fill="oklch(0.7 0.18 243.00)" />
    <rect x="20.1" y="16.1" width="0.8" height="0.8" fill="oklch(0.7 0.18 244.80)" />
    <rect x="16.1" y="11.1" width="0.8" height="0.8" fill="oklch(0.7 0.18 246.60)" />
    <rect x="17.1" y="12.1" width="0.8" height="0.8" fill="oklch(0.7 0.18 248.40)" />
    <rect x="18.1" y="13.1" width="0.8" height="0.8" fill="oklch(0.7 0.18 250.20)" />
    <rect x="19.1" y="14.1" width="0.8" height="0.8" fill="oklch(0.7 0.18 252.00)" />
    <rect x="20.1" y="15.1" width="0.8" height="0.8" fill="oklch(0.7 0.18 253.80)" />
    <rect x="21.1" y="16.1" width="0.8" height="0.8" fill="oklch(0.7 0.18 255.60)" />
    <rect x="16.1" y="10.1" width="0.8" height="0.8" fill="oklch(0.7 0.18 257.40)" />
    <rect x="17.1" y="11.1" width="0.8" height="0.8" fill="oklch(0.7 0.18 259.20)" />
    <rect x="18.1" y="12.1" width="0.8" height="0.8" fill="oklch(0.7 0.18 261.00)" />
    <rect x="19.1" y="13.1" width="0.8" height="0.8" fill="oklch(0.7 0.18 262.80)" />
    <rect x="20.1" y="14.1" width="0.8" height="0.8" fill="oklch(0.7 0.18 264.60)" />
    <rect x="21.1" y="15.1" width="0.8" height="0.8" fill="oklch(0.7 0.18 266.40)" />
    <rect x="17.1" y="10.1" width="0.8" height="0.8" fill="oklch(0.7 0.18 268.20)" />
    <rect x="18.1" y="11.1" width="0.8" height="0.8" fill="oklch(0.7 0.18 270.00)" />
    <rect x="19.1" y="12.1" width="0.8" height="0.8" fill="oklch(0.7 0.18 271.80)" />
    <rect x="20.1" y="13.1" width="0.8" height="0.8" fill="oklch(0.7 0.18 273.60)" />
    <rect x="21.1" y="14.1" width="0.8" height="0.8" fill="oklch(0.7 0.18 275.40)" />
    <rect x="17.1" y="9.1" width="0.8" height="0.8" fill="oklch(0.7 0.18 277.20)" />
    <rect x="18.1" y="10.1" width="0.8" height="0.8" fill="oklch(0.7 0.18 279.00)" />
    <rect x="19.1" y="11.1" width="0.8" height="0.8" fill="oklch(0.7 0.18 280.80)" />
    <rect x="20.1" y="12.1" width="0.8" height="0.8" fill="oklch(0.7 0.18 282.60)" />
    <rect x="21.1" y="13.1" width="0.8" height="0.8" fill="oklch(0.7 0.18 284.40)" />
    <rect x="22.1" y="14.1" width="0.8" height="0.8" fill="oklch(0.7 0.18 286.20)" />
    <rect x="18.1" y="9.1" width="0.8" height="0.8" fill="oklch(0.7 0.18 288.00)" />
    <rect x="19.1" y="10.1" width="0.8" height="0.8" fill="oklch(0.7 0.18 289.80)" />
    <rect x="20.1" y="11.1" width="0.8" height="0.8" fill="oklch(0.7 0.18 291.60)" />
    <rect x="21.1" y="12.1" width="0.8" height="0.8" fill="oklch(0.7 0.18 293.40)" />
    <rect x="22.1" y="13.1" width="0.8" height="0.8" fill="oklch(0.7 0.18 295.20)" />
    <rect x="19.1" y="9.1" width="0.8" height="0.8" fill="oklch(0.7 0.18 297.00)" />
    <rect x="20.1" y="10.1" width="0.8" height="0.8" fill="oklch(0.7 0.18 298.80)" />
    <rect x="21.1" y="11.1" width="0.8" height="0.8" fill="oklch(0.7 0.18 300.60)" />
    <rect x="22.1" y="12.1" width="0.8" height="0.8" fill="oklch(0.7 0.18 302.40)" />
    <rect x="19.1" y="8.1" width="0.8" height="0.8" fill="oklch(0.7 0.18 304.20)" />
    <rect x="20.1" y="9.1" width="0.8" height="0.8" fill="oklch(0.7 0.18 306.00)" />
    <rect x="21.1" y="10.1" width="0.8" height="0.8" fill="oklch(0.7 0.18 307.80)" />
    <rect x="22.1" y="11.1" width="0.8" height="0.8" fill="oklch(0.7 0.18 309.60)" />
    <rect x="23.1" y="12.1" width="0.8" height="0.8" fill="oklch(0.7 0.18 311.40)" />
    <rect x="20.1" y="8.1" width="0.8" height="0.8" fill="oklch(0.7 0.18 313.20)" />
    <rect x="21.1" y="9.1" width="0.8" height="0.8" fill="oklch(0.7 0.18 315.00)" />
    <rect x="22.1" y="10.1" width="0.8" height="0.8" fill="oklch(0.7 0.18 316.80)" />
    <rect x="23.1" y="11.1" width="0.8" height="0.8" fill="oklch(0.7 0.18 318.60)" />
    <rect x="20.1" y="7.1" width="0.8" height="0.8" fill="oklch(0.7 0.18 320.40)" />
    <rect x="21.1" y="8.1" width="0.8" height="0.8" fill="oklch(0.7 0.18 322.20)" />
    <rect x="22.1" y="9.1" width="0.8" height="0.8" fill="oklch(0.7 0.18 324.00)" />
    <rect x="23.1" y="10.1" width="0.8" height="0.8" fill="oklch(0.7 0.18 325.80)" />
    <rect x="21.1" y="7.1" width="0.8" height="0.8" fill="oklch(0.7 0.18 327.60)" />
    <rect x="22.1" y="8.1" width="0.8" height="0.8" fill="oklch(0.7 0.18 329.40)" />
    <rect x="23.1" y="9.1" width="0.8" height="0.8" fill="oklch(0.7 0.18 331.20)" />
    <rect x="24.1" y="10.1" width="0.8" height="0.8" fill="oklch(0.7 0.18 333.00)" />
    <rect x="22.1" y="7.1" width="0.8" height="0.8" fill="oklch(0.7 0.18 334.80)" />
    <rect x="23.1" y="8.1" width="0.8" height="0.8" fill="oklch(0.7 0.18 336.60)" />
    <rect x="24.1" y="9.1" width="0.8" height="0.8" fill="oklch(0.7 0.18 338.40)" />
    <rect x="22.1" y="6.1" width="0.8" height="0.8" fill="oklch(0.7 0.18 340.20)" />
    <rect x="23.1" y="7.1" width="0.8" height="0.8" fill="oklch(0.7 0.18 342.00)" />
    <rect x="24.1" y="8.1" width="0.8" height="0.8" fill="oklch(0.7 0.18 343.80)" />
    <rect x="25.1" y="9.1" width="0.8" height="0.8" fill="oklch(0.7 0.18 345.60)" />
    <rect x="23.1" y="6.1" width="0.8" height="0.8" fill="oklch(0.7 0.18 347.40)" />
    <rect x="24.1" y="7.1" width="0.8" height="0.8" fill="oklch(0.7 0.18 349.20)" />
    <rect x="25.1" y="8.1" width="0.8" height="0.8" fill="oklch(0.7 0.18 351.00)" />
    <rect x="24.1" y="6.1" width="0.8" height="0.8" fill="oklch(0.7 0.18 352.80)" />
    <rect x="25.1" y="7.1" width="0.8" height="0.8" fill="oklch(0.7 0.18 354.60)" />
    <rect x="26.1" y="8.1" width="0.8" height="0.8" fill="oklch(0.7 0.18 356.40)" />
    <rect x="25.1" y="6.1" width="0.8" height="0.8" fill="oklch(0.7 0.18 358.20)" />
    <rect x="26.1" y="7.1" width="0.8" height="0.8" fill="oklch(0.7 0.18 360.00)" />
</svg>